<svg width="30" height="32" viewBox="0 0 30 32" fill="none" xmlns="http://www.w3.org/2000/svg">
<path d="M27.1443 4.5283C26.7306 2.00264 20.8194 0 13.5849 0C6.35038 0 0.439245 2.00264 0.0254717 4.5283H0V4.81132V11.3208V11.6038V11.8868V18.1132V18.3962V18.6792V25.4717H0.0254717C0.439245 27.9968 6.35094 30 13.5849 30C20.8189 30 26.7306 27.9968 27.1443 25.4717H27.1698V18.6792V18.3962V18.1132V11.8868V11.6038V11.3208V4.81132V4.5283H27.1443Z" fill="#737373"/>
<path d="M13.5849 23.2078C6.08208 23.2078 0 21.0535 0 18.3965V25.472H0.0254717C0.439245 27.9971 6.35094 30.0003 13.5849 30.0003C20.8189 30.0003 26.7306 27.9971 27.1443 25.472H27.1698V18.3965C27.1698 21.0535 21.0877 23.2078 13.5849 23.2078Z" fill="#474747"/>
<path d="M0 18.1133V18.3963C0 18.3012 0.0101887 18.2072 0.0254717 18.1133H0Z" fill="#474747"/>
<path d="M27.1444 18.1133C27.1597 18.2072 27.1699 18.3012 27.1699 18.3963V18.1133H27.1444Z" fill="#474747"/>
<path d="M13.5849 16.4148C6.08208 16.4148 0 14.2605 0 11.6035V18.679H0.0254717C0.439245 21.2041 6.35094 23.2073 13.5849 23.2073C20.8189 23.2073 26.7306 21.2041 27.1443 18.679H27.1698V11.6035C27.1698 14.2605 21.0877 16.4148 13.5849 16.4148Z" fill="#858585"/>
<path d="M0 11.3208V11.6038C0 11.5087 0.0101887 11.4148 0.0254717 11.3208H0Z" fill="#858585"/>
<path d="M27.1444 11.3208C27.1597 11.4148 27.1699 11.5087 27.1699 11.6038V11.3208H27.1444Z" fill="#858585"/>
<path d="M13.5849 9.62264C21.0876 9.62264 27.1698 7.46854 27.1698 4.81132C27.1698 2.1541 21.0876 0 13.5849 0C6.08217 0 0 2.1541 0 4.81132C0 7.46854 6.08217 9.62264 13.5849 9.62264Z" fill="#DEDEDE"/>
<path d="M13.5849 9.62284C6.08208 9.62284 0 7.4685 0 4.81152V11.887H0.0254717C0.439245 14.4121 6.35094 16.4153 13.5849 16.4153C20.8189 16.4153 26.7306 14.4121 27.1443 11.887H27.1698V4.81152C27.1698 7.4685 21.0877 9.62284 13.5849 9.62284Z" fill="#CACACA"/>
<path d="M0 4.52832V4.81134C0 4.71624 0.0101887 4.62228 0.0254717 4.52832H0Z" fill="#CACACA"/>
<path d="M27.1444 4.52832C27.1597 4.62228 27.1699 4.71624 27.1699 4.81134V4.52832H27.1444Z" fill="#CACACA"/>
<path d="M23.2075 31.6982C26.9589 31.6982 29.9999 28.6571 29.9999 24.9057C29.9999 21.1544 26.9589 18.1133 23.2075 18.1133C19.4561 18.1133 16.415 21.1544 16.415 24.9057C16.415 28.6571 19.4561 31.6982 23.2075 31.6982Z" fill="#FF9474"/>
<path d="M26.9268 21.6104C26.6693 21.4316 26.3172 21.495 26.1389 21.7519L22.9714 26.3029L20.7361 24.4678C20.495 24.2691 20.1378 24.3048 19.9397 24.5465C19.741 24.7882 19.7761 25.1448 20.0184 25.3429L22.7274 27.5668C22.8293 27.6501 22.9561 27.6953 23.0863 27.6953C23.1117 27.6953 23.1378 27.6936 23.1638 27.6902C23.32 27.6682 23.4604 27.5827 23.551 27.4531L27.0683 22.3989C27.2467 22.1419 27.1833 21.7893 26.9268 21.6104Z" fill="white"/>
</svg>
