<svg width="126" height="16" viewBox="0 0 126 16" fill="none" xmlns="http://www.w3.org/2000/svg">
<path d="M1.5 7C0.947715 7 0.5 7.44772 0.5 8C0.5 8.55228 0.947715 9 1.5 9V7ZM125.207 8.70711C125.598 8.31658 125.598 7.68342 125.207 7.29289L118.843 0.928931C118.453 0.538407 117.819 0.538407 117.429 0.928931C117.038 1.31946 117.038 1.95262 117.429 2.34315L123.086 8L117.429 13.6569C117.038 14.0474 117.038 14.6805 117.429 15.0711C117.819 15.4616 118.453 15.4616 118.843 15.0711L125.207 8.70711ZM1.5 9H124.5V7H1.5V9Z" fill="#FF9474"/>
</svg>
