
<svg width="88" height="47" viewBox="0 0 88 47" fill="none" xmlns="http://www.w3.org/2000/svg">
<path d="M84.2237 11.0592C82.0305 7.54229 78.9309 4.66751 75.2438 2.73053C71.5566 0.793549 67.415 -0.13571 63.245 0.0383352C60.0962 0.229752 57.0248 1.08396 54.2357 2.54399C51.4466 4.00401 49.004 6.03628 47.0707 8.50521C47.4142 9.06105 47.7868 9.58813 48.0964 10.1679L52.3492 18.0838L52.9976 16.8667C53.9875 14.8417 55.4917 13.1062 57.3628 11.8302C59.2338 10.5543 61.4075 9.78169 63.6708 9.58813C65.5205 9.5194 67.3653 9.82087 69.0947 10.4745C70.8241 11.1282 72.4026 12.1206 73.7358 13.3923C75.069 14.6641 76.1295 16.1891 76.8539 17.8761C77.5783 19.5632 77.9516 21.3776 77.9516 23.2108C77.9516 25.0441 77.5783 26.8585 76.8539 28.5455C76.1295 30.2326 75.069 31.7576 73.7358 33.0294C72.4026 34.3011 70.8241 35.2935 69.0947 35.9471C67.3653 36.6008 65.5205 36.9023 63.6708 36.8335C61.4086 36.6406 59.2358 35.8687 57.3656 34.5935C55.4953 33.3184 53.9918 31.5838 53.0024 29.5598L49.5963 23.2156L43.8242 12.3865C42.0432 8.88264 39.3707 5.89918 36.0702 3.73041C32.7697 1.56164 28.9554 0.2825 25.0034 0.0191676C21.8475 -0.107917 18.6982 0.397959 15.7446 1.50641C12.791 2.61487 10.0941 4.30304 7.81575 6.46956C5.53741 8.63608 3.72466 11.2363 2.48636 14.114C1.24806 16.9916 0.609741 20.0875 0.609741 23.2156C0.609741 26.3438 1.24806 29.4396 2.48636 32.3173C3.72466 35.195 5.53741 37.7952 7.81575 39.9617C10.0941 42.1282 12.791 43.8164 15.7446 44.9248C18.6982 46.0333 21.8475 46.5392 25.0034 46.4121C28.1522 46.2207 31.2236 45.3665 34.0127 43.9064C36.8018 42.4464 39.2444 40.4142 41.1777 37.9452C40.8342 37.3894 40.4616 36.8623 40.152 36.2825L35.8992 28.3475L35.2509 29.5646C34.2609 31.5896 32.7567 33.3251 30.8857 34.601C29.0146 35.877 26.8409 36.6496 24.5777 36.8431C22.1103 36.9457 19.6603 36.3912 17.4827 35.2375C15.3052 34.0838 13.4798 32.373 12.1966 30.2833C10.8853 28.1581 10.1915 25.7158 10.1915 23.2252C10.1915 20.7346 10.8853 18.2923 12.1966 16.1671C13.4309 14.1587 15.1659 12.4982 17.2349 11.3453C19.3039 10.1924 21.6375 9.58561 24.0116 9.58333H24.597C26.8592 9.77631 29.032 10.5482 30.9022 11.8233C32.7724 13.0985 34.276 14.8331 35.2654 16.8571L38.6521 23.2156L44.4242 34.0448C46.2052 37.5486 48.8777 40.5321 52.1782 42.7008C55.4787 44.8696 59.293 46.1488 63.245 46.4121H64.2562C68.4219 46.4079 72.5112 45.3047 76.1035 43.2158C79.6958 41.127 82.6613 38.128 84.6949 34.5275C86.7285 30.9269 87.7568 26.8548 87.674 22.73C87.5912 18.6052 86.4002 14.5768 84.2237 11.0592Z" fill="#FF9474"/>
</svg>
