<svg width="29" height="24" viewBox="0 0 29 24" fill="none" xmlns="http://www.w3.org/2000/svg">
<path d="M2 10.5C1.17157 10.5 0.5 11.1716 0.5 12C0.5 12.8284 1.17157 13.5 2 13.5V10.5ZM28.3037 13.0607C28.8895 12.4749 28.8895 11.5251 28.3037 10.9393L18.7578 1.3934C18.172 0.807611 17.2223 0.807611 16.6365 1.3934C16.0507 1.97919 16.0507 2.92893 16.6365 3.51472L25.1217 12L16.6365 20.4853C16.0507 21.0711 16.0507 22.0208 16.6365 22.6066C17.2223 23.1924 18.172 23.1924 18.7578 22.6066L28.3037 13.0607ZM2 13.5H27.2431V10.5H2V13.5Z" fill="#FF9474"/>
</svg>
